<?xml version="1.0" encoding="utf-8"?>
<!-- Generator: Adobe Illustrator 16.2.1, SVG Export Plug-In . SVG Version: 6.00 Build 0)  -->
<!DOCTYPE svg PUBLIC "-//W3C//DTD SVG 1.1//EN" "http://www.w3.org/Graphics/SVG/1.1/DTD/svg11.dtd">
<svg version="1.1" id="Layer_1" xmlns="http://www.w3.org/2000/svg" xmlns:xlink="http://www.w3.org/1999/xlink" x="0px" y="0px"
	 width="279px" height="500px" viewBox="0 0 279 500" enable-background="new 0 0 279 500" xml:space="preserve">
<g id="Layer_3">
	<rect x="25.208" y="497.834" width="38.604" height="2.166"/>
</g>
<g id="Layer_2">
	<path d="M42.75,203.25H3c-1.657,0-3,1.343-3,3V259c0,1.657,1.343,3,3,3h39.75c1.656,0,3-1.343,3-3v-52.75
		C45.75,204.593,44.406,203.25,42.75,203.25z M22.875,261.307c-0.932,0-1.688-0.757-1.688-1.688c0-0.933,0.755-1.688,1.688-1.688
		c0.932,0,1.688,0.756,1.688,1.688C24.563,260.55,23.807,261.307,22.875,261.307z M41.375,257h-37v-49h37V257z"/>
	<path d="M0,321.25V361c0,1.656,1.343,3,3,3h52.75c1.657,0,3-1.344,3-3v-39.75c0-1.656-1.343-3-3-3H3
		C1.343,318.25,0,319.594,0,321.25z M58.056,341.125c0,0.932-0.756,1.688-1.688,1.688c-0.932,0-1.688-0.756-1.688-1.688
		s0.756-1.688,1.688-1.688C57.3,339.438,58.056,340.193,58.056,341.125z M53.75,322.625v37h-49v-37H53.75z"/>
	<g>
		<path d="M86,423.5H3c-1.657,0-3,1.343-3,3v53.75c0,1.657,1.343,3,3,3h83c1.656,0,3-1.343,3-3V426.5
			C89,424.843,87.656,423.5,86,423.5z M82.875,477H6.125v-47.75h76.75V477z"/>
		<path d="M57.448,494.875c0,0-1.75-3.375-2-6.875h-7h-3.625h-0.625h-4.25h-6.375c-0.25,3.5-2,6.875-2,6.875
			c-1.701,2.511-3.773,3.199-5.025,3.375h-1.361V500h0.261h14.5h4.25h0.625h3.625h15.125h0.239v-1.75h-1.354
			C61.212,498.074,59.149,497.386,57.448,494.875z"/>
	</g>
</g>
<g id="Layer_4">
	<path d="M24.33,0H2.919C1.307,0,0,1.307,0,2.919V45.01c0,1.613,1.307,2.92,2.919,2.92H24.33c1.612,0,2.92-1.307,2.92-2.92V2.919
		C27.25,1.307,25.942,0,24.33,0z M11.292,3.548h4.667v1h-4.667V3.548z M13.625,46.471c-1.411,0-2.555-1.143-2.555-2.555
		c0-1.411,1.144-2.555,2.555-2.555c1.41,0,2.555,1.144,2.555,2.555C16.18,45.328,15.035,46.471,13.625,46.471z M24.33,39.658H2.919
		V7.786H24.33V39.658z"/>
	<path d="M47.931,140.42v-21.411c0-1.612-1.308-2.919-2.919-2.919H2.92c-1.613,0-2.92,1.307-2.92,2.919v21.411
		c0,1.611,1.307,2.92,2.92,2.92h42.092C46.623,143.34,47.931,142.031,47.931,140.42z M44.383,127.381v4.668h-1v-4.668H44.383z
		 M1.46,129.715c0-1.411,1.143-2.555,2.555-2.555c1.411,0,2.555,1.144,2.555,2.555c0,1.41-1.144,2.555-2.555,2.555
		C2.603,132.27,1.46,131.125,1.46,129.715z M8.272,140.42v-21.411h31.872v21.411H8.272z"/>
</g>
<text transform="matrix(1 0 0 1 268.2979 494.7988)" font-family="'FontAwesome'" font-size="12"></text>
<text transform="matrix(1 0 0 1 269.2812 9.5869)" font-family="'FontAwesome'" font-size="12"></text>
</svg>
